<svg xmlns="http://www.w3.org/2000/svg" x="0px" y="0px"
width="24" height="24"
viewBox="0 0 172 172"
style=" fill:#000000;"><g fill="none" fill-rule="nonzero" stroke="none" stroke-width="1" stroke-linecap="butt" stroke-linejoin="miter" stroke-miterlimit="10" stroke-dasharray="" stroke-dashoffset="0" font-family="none" font-weight="none" font-size="none" text-anchor="none" style="mix-blend-mode: normal"><path d="M0,172v-172h172v172z" fill="#460338"></path><g fill="#ffffff"><path d="M86,21.5c-31.57947,0 -57.33333,25.75386 -57.33333,57.33333v7.16667c-7.88333,0 -14.33333,6.45 -14.33333,14.33333v14.33333c0,7.88333 6.45,14.33333 14.33333,14.33333h14.33333v-35.83333v-7.16667v-7.16667c0,-23.83319 19.16681,-43 43,-43c23.83319,0 43,19.16681 43,43v7.16667v7.16667v35.83333v7.16667h-29.29655c-1.51671,-4.28991 -5.56998,-7.16028 -10.12011,-7.16667c-5.93706,0 -10.75,4.81294 -10.75,10.75c0.00754,5.6328 4.3618,10.30462 9.98014,10.70801c0.25568,0.0278 0.51267,0.04182 0.76986,0.04199h39.41667c7.83362,0 14.33333,-6.49972 14.33333,-14.33333v-7.16667c7.88333,0 14.33333,-6.45 14.33333,-14.33333v-14.33333c0,-7.88333 -6.45,-14.33333 -14.33333,-14.33333v-7.16667c0,-31.57947 -25.75386,-57.33333 -57.33333,-57.33333z"></path></g></g></svg>